<?xml version="1.0" standalone="no"?>
<!DOCTYPE svg PUBLIC "-//W3C//DTD SVG 20010904//EN"
 "http://www.w3.org/TR/2001/REC-SVG-20010904/DTD/svg10.dtd">
<svg version="1.0" xmlns="http://www.w3.org/2000/svg"
 width="225.000000pt" height="225.000000pt" viewBox="0 0 225.000000 225.000000"
 preserveAspectRatio="xMidYMid meet">
<metadata>
Created by potrace 1.11, written by Peter Selinger 2001-2013
</metadata>
<g transform="translate(0.000000,225.000000) scale(0.100000,-0.100000)"
fill="#000000" stroke="none">
<path d="M0 1125 l0 -1125 1125 0 1125 0 0 1125 0 1125 -1125 0 -1125 0 0
-1125z m770 521 l0 -35 -160 -3 c-130 -2 -163 -6 -170 -18 -24 -38 -15 -40
160 -40 l170 0 0 -35 0 -35 -170 0 -170 0 0 -35 0 -35 -125 0 -125 0 0 135 0
135 295 0 295 0 0 -34z m606 -3 c3 -21 15 -80 25 -132 11 -51 19 -95 19 -97 0
-2 -51 -4 -113 -4 l-113 0 -11 30 c-11 29 -13 30 -76 30 -65 0 -66 0 -72 -30
l-7 -30 -124 0 c-124 0 -124 0 -120 23 3 12 10 48 16 80 5 31 15 82 21 112
l10 55 269 0 269 0 7 -37z m684 -79 c0 -63 -5 -124 -10 -135 -10 -18 -24 -19
-315 -19 l-305 0 0 135 0 135 315 0 315 0 0 -116z m111 -434 c39 -21 16 -90
-30 -90 -16 0 -41 30 -41 50 0 20 25 50 41 50 6 0 19 -5 30 -10z m-579 -257
c-259 -2 -685 -2 -945 0 -259 1 -47 2 473 2 520 0 732 -1 472 -2z m150 -223
c12 -33 26 -60 30 -60 5 0 8 -4 8 -10 0 -5 -11 -10 -25 -10 -19 0 -25 5 -23
18 2 12 -5 18 -24 20 -23 3 -28 -1 -28 -17 0 -14 -6 -21 -20 -21 -23 0 -24 3
-10 28 6 9 19 38 30 65 10 26 24 47 29 47 5 0 20 -27 33 -60z m-1354 30 c-7
-10 -9 -22 -5 -26 9 -9 37 15 37 32 0 8 10 14 25 14 l24 0 -24 -25 c-31 -30
-31 -34 0 -67 14 -15 25 -30 25 -33 0 -3 -11 -5 -25 -5 -17 0 -25 5 -25 18 0
19 -18 42 -32 42 -13 0 -9 -38 5 -43 8 -3 6 -7 -5 -12 -10 -4 -26 -4 -35 0
-12 5 -14 9 -5 12 16 6 16 85 0 101 -9 9 -5 12 20 12 29 0 31 -2 20 -20z m222
5 c0 -11 -8 -13 -30 -8 -23 4 -30 2 -30 -11 0 -10 9 -16 25 -16 14 0 25 -4 25
-10 0 -5 -11 -10 -25 -10 -18 0 -25 -5 -25 -20 0 -23 29 -27 48 -8 9 9 12 7
12 -10 0 -20 -5 -22 -50 -22 -27 0 -50 5 -50 10 0 6 5 10 10 10 14 0 12 84 -2
98 -9 9 0 12 40 12 39 0 52 -4 52 -15z m140 0 c0 -11 -8 -13 -30 -8 -23 4 -30
2 -30 -11 0 -9 8 -16 20 -16 11 0 20 -4 20 -10 0 -5 -9 -10 -20 -10 -13 0 -20
-7 -20 -20 0 -13 7 -20 20 -20 11 0 20 5 20 10 0 6 5 10 10 10 6 0 10 -9 10
-20 0 -17 -7 -20 -47 -20 l-48 0 0 65 0 65 48 0 c35 0 47 -4 47 -15z m140 0
c19 -22 2 -55 -32 -62 -25 -5 -29 -9 -24 -29 6 -21 3 -24 -19 -24 -14 0 -25 5
-25 10 0 6 5 10 10 10 14 0 12 84 -2 98 -9 9 -2 12 34 12 28 0 50 -6 58 -15z
m175 -50 c0 -58 -2 -65 -20 -65 -18 0 -20 7 -20 65 0 58 2 65 20 65 18 0 20
-7 20 -65z m155 51 c0 -10 -7 -12 -21 -9 -21 6 -22 3 -17 -50 4 -53 3 -57 -17
-57 -20 0 -21 4 -17 57 5 53 4 56 -17 50 -14 -3 -21 -1 -21 9 0 10 14 14 55
14 41 0 55 -4 55 -14z m218 -14 c2 -13 -2 -29 -8 -37 -9 -11 -7 -18 9 -34 25
-25 26 -31 6 -31 -8 0 -22 11 -31 25 -9 14 -21 25 -26 25 -6 0 -7 -11 -4 -25
5 -21 3 -25 -16 -25 -22 0 -23 4 -23 65 l0 66 45 -3 c38 -3 45 -6 48 -26z
m162 13 c0 -11 -8 -13 -30 -8 -23 4 -30 2 -30 -11 0 -9 8 -16 20 -16 11 0 20
-4 20 -10 0 -5 -9 -10 -20 -10 -13 0 -20 -7 -20 -20 0 -22 35 -29 43 -7 2 6 8
9 12 5 19 -18 -6 -38 -47 -38 l-43 0 0 65 0 65 48 0 c35 0 47 -4 47 -15z m261
-41 l-3 -57 32 6 c23 5 30 3 28 -6 -3 -6 -24 -13 -49 -15 l-44 -3 0 66 c0 58
2 65 20 65 18 0 20 -5 16 -56z m129 -59 c0 -8 -4 -15 -10 -15 -5 0 -10 7 -10
15 0 8 5 15 10 15 6 0 10 -7 10 -15z"/>
<path d="M1070 1580 c-32 -32 -24 -40 35 -40 48 0 55 2 55 20 0 20 -27 40 -54
40 -9 0 -25 -9 -36 -20z"/>
<path d="M1670 1590 c0 -18 7 -20 80 -20 73 0 80 2 80 20 0 18 -7 20 -80 20
-73 0 -80 -2 -80 -20z"/>
<path d="M1670 1495 c0 -26 0 -26 78 -23 71 3 77 5 80 26 3 21 1 22 -77 22
-80 0 -81 0 -81 -25z"/>
<path d="M2122 1118 c-30 -30 11 -85 44 -57 25 21 11 69 -21 69 -6 0 -16 -5
-23 -12z m31 -4 c21 -7 10 -40 -14 -41 -19 -2 -27 26 -12 40 8 8 8 8 26 1z"/>
<path d="M1697 650 c-3 -13 0 -20 9 -20 15 0 19 26 5 34 -5 3 -11 -3 -14 -14z"/>
<path d="M830 660 c0 -13 7 -20 20 -20 13 0 20 7 20 20 0 13 -7 20 -20 20 -13
0 -20 -7 -20 -20z"/>
<path d="M1380 659 c0 -14 5 -19 17 -17 26 5 29 38 4 38 -15 0 -21 -6 -21 -21z"/>
</g>
</svg>
